<svg xmlns="http://www.w3.org/2000/svg" xmlns:xlink="http://www.w3.org/1999/xlink" width="4000" zoomAndPan="magnify" viewBox="0 0 3000 899.99995" height="1500" preserveAspectRatio="xMidYMid meet" version="1.0"><defs><g/><clipPath id="e35622fd40"><rect x="0" width="2340" y="0" height="526"/></clipPath><clipPath id="8f2668e722"><rect x="0" width="1409" y="0" height="140"/></clipPath></defs><g transform="matrix(1, 0, 0, 1, 352, 243)"><g clip-path="url(#e35622fd40)"><g fill="#d8d8d4" fill-opacity="1"><g transform="translate(10.150333, 420.05257)"><g><path d="M 37.25 -305.375 C 30.601562 -322.863281 23.867188 -335.628906 17.046875 -343.671875 C 10.234375 -351.722656 3.851562 -357.148438 -2.09375 -359.953125 L -2.09375 -367.296875 L 94.453125 -367.296875 L 94.453125 -359.953125 C 85.703125 -357.148438 82.375 -351.722656 84.46875 -343.671875 C 86.570312 -335.628906 90.945312 -322.863281 97.59375 -305.375 L 194.140625 -60.34375 L 289.109375 -305.375 C 296.109375 -322.863281 298.820312 -335.804688 297.25 -344.203125 C 295.675781 -352.597656 290.335938 -357.847656 281.234375 -359.953125 L 281.234375 -367.296875 L 342.109375 -367.296875 L 342.109375 -359.953125 C 334.410156 -357.148438 327.0625 -351.722656 320.0625 -343.671875 C 313.070312 -335.628906 306.078125 -322.863281 299.078125 -305.375 L 180.5 0 L 160.5625 0 Z M 37.25 -305.375 "/></g></g></g><g fill="#d8d8d4" fill-opacity="1"><g transform="translate(402.633594, 420.05257)"><g><path d="M 24.65625 0 L 24.65625 -7.34375 C 33.40625 -10.144531 39.09375 -16.003906 41.71875 -24.921875 C 44.34375 -33.835938 45.65625 -47.742188 45.65625 -66.640625 L 45.65625 -300.65625 C 45.65625 -319.539062 44.34375 -333.441406 41.71875 -342.359375 C 39.09375 -351.285156 33.40625 -357.148438 24.65625 -359.953125 L 24.65625 -367.296875 L 122.25 -367.296875 L 122.25 -359.953125 C 113.507812 -357.148438 107.828125 -351.285156 105.203125 -342.359375 C 102.578125 -333.441406 101.265625 -319.539062 101.265625 -300.65625 L 101.265625 -66.640625 C 101.265625 -47.742188 102.578125 -33.835938 105.203125 -24.921875 C 107.828125 -16.003906 113.507812 -10.144531 122.25 -7.34375 L 122.25 0 Z M 24.65625 0 "/></g></g></g><g fill="#d8d8d4" fill-opacity="1"><g transform="translate(602.023631, 420.05257)"><g><path d="M 24.65625 0 L 24.65625 -7.34375 C 33.40625 -10.144531 39.09375 -16.003906 41.71875 -24.921875 C 44.34375 -33.835938 45.65625 -47.742188 45.65625 -66.640625 L 45.65625 -300.65625 C 45.65625 -319.539062 44.34375 -333.441406 41.71875 -342.359375 C 39.09375 -351.285156 33.40625 -357.148438 24.65625 -359.953125 L 24.65625 -367.296875 L 134.84375 -367.296875 C 164.925781 -367.296875 189.5 -364.054688 208.5625 -357.578125 C 227.632812 -351.109375 242.503906 -342.710938 253.171875 -332.390625 C 263.835938 -322.078125 271.269531 -310.972656 275.46875 -299.078125 C 279.664062 -287.179688 281.765625 -275.988281 281.765625 -265.5 C 281.765625 -243.8125 276.34375 -223.695312 265.5 -205.15625 C 254.65625 -186.613281 237.863281 -171.832031 215.125 -160.8125 C 192.382812 -149.800781 163.003906 -144.296875 126.984375 -144.296875 L 101.265625 -144.296875 L 101.265625 -66.640625 C 101.265625 -47.742188 102.578125 -33.835938 105.203125 -24.921875 C 107.828125 -16.003906 113.507812 -10.144531 122.25 -7.34375 L 122.25 0 Z M 101.265625 -152.6875 L 124.359375 -152.6875 C 158.640625 -152.6875 183.5625 -161.78125 199.125 -179.96875 C 214.6875 -198.15625 222.46875 -222.117188 222.46875 -251.859375 C 222.46875 -263.046875 220.894531 -274.847656 217.75 -287.265625 C 214.601562 -299.691406 209.09375 -311.328125 201.21875 -322.171875 C 193.351562 -333.015625 182.597656 -341.84375 168.953125 -348.65625 C 155.304688 -355.476562 138.164062 -358.890625 117.53125 -358.890625 C 111.582031 -358.890625 106.160156 -358.539062 101.265625 -357.84375 Z M 101.265625 -152.6875 "/></g></g></g><g fill="#d8d8d4" fill-opacity="1"><g transform="translate(947.80778, 420.05257)"><g/></g></g><g fill="#d8d8d4" fill-opacity="1"><g transform="translate(1105.221002, 420.05257)"><g><path d="M 24.65625 0 L 24.65625 -7.34375 C 33.40625 -10.144531 39.09375 -16.003906 41.71875 -24.921875 C 44.34375 -33.835938 45.65625 -47.742188 45.65625 -66.640625 L 45.65625 -300.65625 C 45.65625 -319.539062 44.34375 -333.441406 41.71875 -342.359375 C 39.09375 -351.285156 33.40625 -357.148438 24.65625 -359.953125 L 24.65625 -367.296875 L 122.25 -367.296875 L 122.25 -359.953125 C 113.507812 -357.148438 107.828125 -351.285156 105.203125 -342.359375 C 102.578125 -333.441406 101.265625 -319.539062 101.265625 -300.65625 L 101.265625 -35.6875 C 101.265625 -18.1875 110.007812 -9.4375 127.5 -9.4375 L 170.53125 -9.4375 C 197.113281 -9.4375 218.015625 -13.457031 233.234375 -21.5 C 248.453125 -29.550781 261.304688 -44.769531 271.796875 -67.15625 L 278.625 -66.109375 L 274.421875 0 Z M 24.65625 0 "/></g></g></g><g fill="#d8d8d4" fill-opacity="1"><g transform="translate(1445.757969, 420.05257)"><g><path d="M 24.65625 0 L 24.65625 -7.34375 C 33.40625 -10.144531 39.09375 -16.003906 41.71875 -24.921875 C 44.34375 -33.835938 45.65625 -47.742188 45.65625 -66.640625 L 45.65625 -300.65625 C 45.65625 -319.539062 44.34375 -333.441406 41.71875 -342.359375 C 39.09375 -351.285156 33.40625 -357.148438 24.65625 -359.953125 L 24.65625 -367.296875 L 122.25 -367.296875 L 122.25 -359.953125 C 113.507812 -357.148438 107.828125 -351.285156 105.203125 -342.359375 C 102.578125 -333.441406 101.265625 -319.539062 101.265625 -300.65625 L 101.265625 -66.640625 C 101.265625 -47.742188 102.578125 -33.835938 105.203125 -24.921875 C 107.828125 -16.003906 113.507812 -10.144531 122.25 -7.34375 L 122.25 0 Z M 24.65625 0 "/></g></g></g><g fill="#d8d8d4" fill-opacity="1"><g transform="translate(1645.148088, 420.05257)"><g><path d="M 24.65625 0 L 24.65625 -7.34375 C 33.40625 -10.144531 39.09375 -16.003906 41.71875 -24.921875 C 44.34375 -33.835938 45.65625 -47.742188 45.65625 -66.640625 L 45.65625 -300.65625 C 45.65625 -319.539062 44.34375 -333.441406 41.71875 -342.359375 C 39.09375 -351.285156 33.40625 -357.148438 24.65625 -359.953125 L 24.65625 -367.296875 L 278.09375 -367.296875 L 281.765625 -309.046875 L 274.9375 -307.46875 C 265.144531 -326.007812 253.335938 -339.039062 239.515625 -346.5625 C 225.703125 -354.082031 205.851562 -357.84375 179.96875 -357.84375 L 101.265625 -357.84375 L 101.265625 -205.6875 L 143.765625 -205.6875 C 165.109375 -205.6875 181.898438 -207.082031 194.140625 -209.875 C 206.378906 -212.675781 215.472656 -217.050781 221.421875 -223 C 227.367188 -228.945312 231.742188 -236.46875 234.546875 -245.5625 L 241.890625 -245.5625 L 241.890625 -156.359375 L 234.546875 -156.359375 C 231.742188 -165.453125 227.367188 -172.972656 221.421875 -178.921875 C 215.472656 -184.867188 206.378906 -189.238281 194.140625 -192.03125 C 181.898438 -194.832031 165.109375 -196.234375 143.765625 -196.234375 L 101.265625 -196.234375 L 101.265625 -66.640625 C 101.265625 -47.742188 102.578125 -33.835938 105.203125 -24.921875 C 107.828125 -16.003906 113.507812 -10.144531 122.25 -7.34375 L 122.25 0 Z M 24.65625 0 "/></g></g></g><g fill="#d8d8d4" fill-opacity="1"><g transform="translate(1991.981722, 420.05257)"><g><path d="M 98.640625 0 L 98.640625 -7.34375 C 107.390625 -10.144531 113.070312 -16.003906 115.6875 -24.921875 C 118.3125 -33.835938 119.625 -47.742188 119.625 -66.640625 L 119.625 -357.84375 L 103.359375 -357.84375 C 79.929688 -357.84375 61.566406 -353.90625 48.265625 -346.03125 C 34.972656 -338.164062 23.429688 -323.738281 13.640625 -302.75 L 7.34375 -303.796875 L 10.5 -367.296875 L 283.859375 -367.296875 L 287.015625 -303.796875 L 280.71875 -302.75 C 270.925781 -323.738281 259.378906 -338.164062 246.078125 -346.03125 C 232.785156 -353.90625 214.421875 -357.84375 190.984375 -357.84375 L 175.78125 -357.84375 L 175.78125 -66.640625 C 175.78125 -47.742188 177.085938 -33.835938 179.703125 -24.921875 C 182.328125 -16.003906 188.015625 -10.144531 196.765625 -7.34375 L 196.765625 0 Z M 98.640625 0 "/></g></g></g></g></g><path stroke-linecap="butt" transform="matrix(0.75, 0, 0, 0.75, 2268.342511, 850.211321)" fill="none" stroke-linejoin="miter" d="M 0.00165227 5.499489 L 390.277732 5.499489 " stroke="#168a55" stroke-width="11" stroke-opacity="1" stroke-miterlimit="4"/><g transform="matrix(1, 0, 0, 1, 853, 760)"><g clip-path="url(#8f2668e722)"><g fill="#168a55" fill-opacity="1"><g transform="translate(1.894424, 136.529545)"><g><path d="M 99.109375 -99.25 L 99.109375 0 L 90.46875 0 L 26.65625 -80.546875 L 26.65625 0 L 16.171875 0 L 16.171875 -99.25 L 24.8125 -99.25 L 88.765625 -18.71875 L 88.765625 -99.25 Z M 99.109375 -99.25 "/></g></g></g><g fill="#168a55" fill-opacity="1"><g transform="translate(230.595503, 136.529545)"><g><path d="M 16.171875 -99.25 L 26.65625 -99.25 L 26.65625 0 L 16.171875 0 Z M 16.171875 -99.25 "/></g></g></g><g fill="#168a55" fill-opacity="1"><g transform="translate(386.857834, 136.529545)"><g><path d="M 86.078125 -49.625 L 96.140625 -49.625 L 96.140625 -11.765625 C 91.503906 -7.703125 86.019531 -4.582031 79.6875 -2.40625 C 73.351562 -0.238281 66.691406 0.84375 59.703125 0.84375 C 49.773438 0.84375 40.835938 -1.328125 32.890625 -5.671875 C 24.953125 -10.015625 18.710938 -16.039062 14.171875 -23.75 C 9.640625 -31.457031 7.375 -40.082031 7.375 -49.625 C 7.375 -59.175781 9.640625 -67.800781 14.171875 -75.5 C 18.710938 -83.207031 24.953125 -89.234375 32.890625 -93.578125 C 40.835938 -97.929688 49.820312 -100.109375 59.84375 -100.109375 C 67.40625 -100.109375 74.351562 -98.898438 80.6875 -96.484375 C 87.019531 -94.078125 92.359375 -90.507812 96.703125 -85.78125 L 90.1875 -79.125 C 82.332031 -86.875 72.359375 -90.75 60.265625 -90.75 C 52.222656 -90.75 44.960938 -88.972656 38.484375 -85.421875 C 32.015625 -81.878906 26.9375 -76.960938 23.25 -70.671875 C 19.5625 -64.390625 17.71875 -57.375 17.71875 -49.625 C 17.71875 -41.875 19.5625 -34.878906 23.25 -28.640625 C 26.9375 -22.398438 31.992188 -17.484375 38.421875 -13.890625 C 44.847656 -10.296875 52.082031 -8.5 60.125 -8.5 C 70.332031 -8.5 78.984375 -11.054688 86.078125 -16.171875 Z M 86.078125 -49.625 "/></g></g></g><g fill="#168a55" fill-opacity="1"><g transform="translate(609.88856, 136.529545)"><g><path d="M 86.359375 -9.078125 L 86.359375 0 L 16.171875 0 L 16.171875 -99.25 L 84.234375 -99.25 L 84.234375 -90.1875 L 26.65625 -90.1875 L 26.65625 -54.875 L 77.984375 -54.875 L 77.984375 -45.9375 L 26.65625 -45.9375 L 26.65625 -9.078125 Z M 86.359375 -9.078125 "/></g></g></g><g fill="#168a55" fill-opacity="1"><g transform="translate(818.176412, 136.529545)"><g><path d="M 83.9375 0 L 61.25 -31.90625 C 58.695312 -31.625 56.050781 -31.484375 53.3125 -31.484375 L 26.65625 -31.484375 L 26.65625 0 L 16.171875 0 L 16.171875 -99.25 L 53.3125 -99.25 C 65.976562 -99.25 75.90625 -96.222656 83.09375 -90.171875 C 90.28125 -84.128906 93.875 -75.8125 93.875 -65.21875 C 93.875 -57.46875 91.910156 -50.921875 87.984375 -45.578125 C 84.054688 -40.242188 78.457031 -36.394531 71.1875 -34.03125 L 95.421875 0 Z M 53.03125 -40.40625 C 62.863281 -40.40625 70.378906 -42.578125 75.578125 -46.921875 C 80.773438 -51.273438 83.375 -57.375 83.375 -65.21875 C 83.375 -73.257812 80.773438 -79.429688 75.578125 -83.734375 C 70.378906 -88.035156 62.863281 -90.1875 53.03125 -90.1875 L 26.65625 -90.1875 L 26.65625 -40.40625 Z M 53.03125 -40.40625 "/></g></g></g><g fill="#168a55" fill-opacity="1"><g transform="translate(1034.119187, 136.529545)"><g><path d="M 16.171875 -99.25 L 26.65625 -99.25 L 26.65625 0 L 16.171875 0 Z M 16.171875 -99.25 "/></g></g></g><g fill="#168a55" fill-opacity="1"><g transform="translate(1190.381474, 136.529545)"><g><path d="M 78.40625 -26.515625 L 23.109375 -26.515625 L 11.203125 0 L 0.28125 0 L 45.65625 -99.25 L 56.015625 -99.25 L 101.390625 0 L 90.328125 0 Z M 74.578125 -35.03125 L 50.765625 -88.34375 L 26.9375 -35.03125 Z M 74.578125 -35.03125 "/></g></g></g></g></g><path stroke-linecap="butt" transform="matrix(0.75, 0, 0, 0.75, 458.137839, 850.204361)" fill="none" stroke-linejoin="miter" d="M -0.00149339 5.498352 L 390.279795 5.498352 " stroke="#168a55" stroke-width="11" stroke-opacity="1" stroke-miterlimit="4"/></svg>